<svg xmlns="http://www.w3.org/2000/svg" width="254" height="52" viewBox="0 0 254 52" fill="none"><path d="M46.4661 24.6917C45.593 24.4007 44.6617 25.0991 43.9633 26.6124L42.2754 25.7976C42.3918 25.5066 42.5664 25.2155 42.741 24.9827L39.1324 25.9722C39.307 26.5542 39.4234 27.1945 39.4234 27.8347C39.4234 31.2105 36.8625 33.9461 33.7195 33.9461C31.3331 33.9461 29.2378 32.3746 28.423 30.1046L27.4335 30.9195C26.9097 30.2793 26.0948 29.93 25.28 29.93C23.7085 29.93 22.4862 31.2105 22.4862 32.7238C22.4862 34.2953 23.7667 35.5176 25.28 35.5176C26.2694 35.5176 27.1425 34.9937 27.6663 34.1789L29.1214 35.1101C28.3065 36.4488 26.8515 37.2637 25.28 37.2637C22.7772 37.2637 20.7401 35.2266 20.7401 32.7238C20.7401 30.221 22.7772 28.1839 25.28 28.1839C26.3276 28.1839 27.3171 28.5331 28.1319 29.2316C28.0155 28.766 27.9573 28.3003 27.9573 27.8347C27.9573 27.1945 28.0737 26.5542 28.2483 25.914C27.2589 25.4484 26.153 25.2155 24.9889 25.2155C23.7085 25.2155 22.5444 25.5066 21.4967 26.0304C21.6713 26.6124 21.7295 27.1945 21.7295 27.8347C21.7295 31.2105 19.1686 33.9461 16.0256 33.9461C12.8826 33.9461 10.3216 31.2105 10.3216 27.8347C10.3216 27.1945 10.4381 26.5542 10.6127 25.9722L8.34272 25.2738C8.45913 25.4484 8.51733 25.623 8.63374 25.7976L6.94584 26.6124C6.2474 25.0991 5.31614 24.4007 4.44309 24.6917C3.57003 24.9827 2.81339 26.3214 3.1044 27.7765C3.39542 29.2898 4.32668 30.8613 5.66536 30.6867C6.3056 30.6285 6.71302 30.221 6.94584 29.8718L8.51733 30.9195C8.28452 31.2687 7.9935 31.6179 7.70248 31.8507C8.05171 34.1789 8.92476 38.6024 10.4963 40.2321C12.3588 42.211 16.4912 45.2958 20.2163 46.9837L20.5655 47.1583L20.6819 47.5657C20.6819 47.5657 21.4385 49.1954 25.6874 49.1954C29.878 49.1954 30.6929 47.6239 30.6929 47.5657L30.8093 47.1583L31.1585 46.9837C34.8253 45.2958 39.016 42.211 40.8785 40.2321C42.3918 38.6606 43.2649 34.4699 43.6141 32.0836C43.1485 31.7925 42.741 31.3851 42.45 30.9195L44.0215 29.8718C44.2543 30.221 44.6617 30.6285 45.302 30.6867C46.6407 30.8031 47.5719 29.2898 47.8629 27.7765C48.0958 26.3214 47.3391 24.9827 46.4661 24.6917ZM6.13099 28.7078L3.74464 26.6706C4.26847 26.0886 6.48021 25.5648 6.13099 28.7078ZM22.8354 43.4915H28.0155C28.0155 44.4809 25.862 46.7509 22.8354 43.4915ZM26.0366 41.7454H25.1636H24.1741C18.9358 41.7454 16.6658 40.1157 16.6076 39.9992L17.1315 39.359L17.6553 38.6606C17.6553 38.6606 19.6342 40.0574 24.2323 40.0574H25.28C29.5288 40.0574 31.5077 40.0574 34.5925 37.6711L35.6402 39.068C32.2062 41.5707 29.878 41.7454 26.0366 41.7454Z" fill="#58C475"></path><path d="M33.6039 23.4116C31.3922 23.4116 29.5879 25.3905 29.5879 27.8351C29.5879 30.2796 31.3922 32.2586 33.6039 32.2586C35.8157 32.2586 37.62 30.2796 37.62 27.8351C37.62 25.3905 35.8157 23.4116 33.6039 23.4116ZM33.7203 29.523C32.7891 29.523 31.9742 28.7663 31.9742 27.7769C31.9742 26.8456 32.7309 26.0308 33.7203 26.0308C34.6516 26.0308 35.4664 26.7874 35.4664 27.7769C35.4664 28.7663 34.6516 29.523 33.7203 29.523Z" fill="white"></path><path d="M15.9086 23.4116C13.6969 23.4116 11.8926 25.3905 11.8926 27.8351C11.8926 30.2796 13.6969 32.2586 15.9086 32.2586C18.1204 32.2586 19.9247 30.2796 19.9247 27.8351C19.9247 25.3905 18.1204 23.4116 15.9086 23.4116ZM16.025 29.523C15.0938 29.523 14.2789 28.7663 14.2789 27.7769C14.2789 26.8456 15.0356 26.0308 16.025 26.0308C16.9563 26.0308 17.7711 26.7874 17.7711 27.7769C17.7711 28.7663 16.9563 29.523 16.025 29.523Z" fill="white"></path><path d="M42.2763 21.0252C41.9853 20.3267 41.1704 20.1521 40.8212 19.5701C40.5302 18.988 42.2763 15.1466 40.472 13.6915C40.181 13.4587 39.8899 13.2841 39.5407 13.1677C39.3661 13.1095 36.3977 12.4692 34.6516 13.1677C34.0114 13.4587 35.7575 14.5646 33.0801 14.681C30.9848 14.7974 29.9953 14.6228 29.6461 14.5064L29.7043 14.5646C30.0535 14.9138 30.1699 16.0779 27.4344 16.0779C25.1644 16.0779 22.9527 15.3794 20.7992 14.6228C20.7992 14.7392 20.7992 14.8556 20.7992 14.9138C20.5664 16.1361 17.5398 14.9138 16.1429 13.9243C15.0952 13.1677 14.2804 12.8767 13.3491 12.7603C12.1268 12.7603 11.021 13.0513 10.2061 13.6915C8.34362 15.2048 10.1479 19.0462 9.85691 19.5701C9.56589 20.1521 8.69284 20.2685 8.40182 21.0252C8.1108 21.7236 8.16901 22.7131 8.22721 23.4697L11.2538 24.3428C12.3015 22.7131 14.0476 21.6654 15.9683 21.6654C17.9472 21.6654 19.6933 22.7713 20.741 24.401C22.0214 23.7607 23.4765 23.4697 24.9316 23.4697C26.3285 23.4697 27.7254 23.7607 28.9477 24.3428C29.9953 22.7713 31.6832 21.6654 33.6622 21.6654C35.6411 21.6654 37.3872 22.7131 38.3766 24.3428L42.5091 23.2369C42.5091 22.5385 42.5091 21.6654 42.2763 21.0252ZM18.9367 20.6177C18.0054 20.2103 16.9577 20.0357 15.9101 20.1521C14.8624 20.2685 13.873 20.6177 13.0581 21.1416L12.1268 19.6865C13.1745 18.988 14.455 18.5224 15.7937 18.406C17.1324 18.2896 18.471 18.4642 19.6933 18.988L18.9367 20.6177ZM35.9321 21.1416C35.1173 20.6177 34.1278 20.2685 33.0801 20.1521C32.0325 20.0357 30.9848 20.2103 30.0535 20.6177L29.3551 19.0462C30.5192 18.5224 31.8578 18.3478 33.2547 18.4642C34.5934 18.5806 35.8739 19.0462 36.9216 19.7447L35.9321 21.1416Z" fill="#58C475"></path><path d="M3.74414 26.6709L6.13049 28.708C6.47971 25.565 4.26797 26.0889 3.74414 26.6709Z" fill="black"></path><path d="M47.1657 26.6709L44.7794 28.708C44.4302 25.565 46.6419 26.0889 47.1657 26.6709Z" fill="black"></path><path d="M16.0254 26.0889C15.0941 26.0889 14.2793 26.8455 14.2793 27.835C14.2793 28.7662 15.0359 29.5811 16.0254 29.5811C16.9567 29.5811 17.7715 28.8244 17.7715 27.835C17.7715 26.8455 16.9567 26.0889 16.0254 26.0889Z" fill="black"></path><path d="M33.7188 26.0889C32.7875 26.0889 31.9727 26.8455 31.9727 27.835C31.9727 28.7662 32.7293 29.5811 33.7188 29.5811C34.65 29.5811 35.4649 28.8244 35.4649 27.835C35.4649 26.8455 34.65 26.0889 33.7188 26.0889Z" fill="black"></path><path d="M33.0801 20.1522C34.1278 20.2686 35.1172 20.6178 35.9321 21.1416L36.8633 19.6865C35.8157 18.9881 34.5352 18.5225 33.1965 18.4061C31.8578 18.2896 30.5191 18.4643 29.2969 18.9881L29.9953 20.5596C30.9848 20.2104 32.0324 20.0358 33.0801 20.1522Z" fill="black"></path><path d="M15.8512 20.1521C16.8989 20.0357 17.9465 20.2103 18.8778 20.6177L19.5762 19.0462C18.4122 18.5224 17.0153 18.3478 15.6766 18.4642C14.3379 18.5806 13.0574 19.0462 12.0098 19.7446L12.941 21.1997C13.8141 20.6177 14.8035 20.2685 15.8512 20.1521Z" fill="black"></path><path d="M28.016 43.4917H22.8359C25.8625 46.7511 28.016 44.4812 28.016 43.4917Z" fill="black"></path><path d="M25.2215 40.0577H24.1739C19.5758 40.0577 17.6551 38.7191 17.5969 38.6608L17.1313 39.3593L16.6074 40.0577C16.7238 40.1159 18.9356 41.8038 24.1739 41.8038H25.1633H26.0364C29.8778 41.8038 32.206 41.6292 35.5236 39.0683L34.4759 37.6714C31.3911 40.0577 29.4704 40.0577 25.2215 40.0577Z" fill="black"></path><path d="M47.0483 22.9459C46.7572 22.8295 46.4662 22.8295 46.1752 22.7713C46.408 21.8982 47.6303 17.3583 47.1647 12.6439C46.8154 8.97703 44.9529 9.73368 43.9635 8.395C42.3338 6.06686 40.8205 4.20434 35.0583 2.69105C31.2169 1.70159 28.5395 0.944942 25.4547 1.00315C22.3117 0.944942 19.5762 1.70159 15.7347 2.69105C9.97259 4.20434 8.4593 6.00865 6.8296 8.395C5.89834 9.79188 3.91942 9.09344 3.5702 12.7603C3.10457 17.4748 4.21044 21.9564 4.44325 22.7713C4.15224 22.7713 3.91942 22.8295 3.68661 22.8877C1.76589 23.5279 0.601819 25.8561 1.12565 28.1842C1.64948 30.8616 3.39559 32.6077 5.37451 32.6077C5.49092 32.6077 5.60733 32.6077 5.72373 32.6077C5.72373 32.6077 5.72373 32.6077 5.78193 32.6077C6.13116 34.9358 7.06241 39.5339 8.98313 41.5128C10.9038 43.5499 15.0363 46.6929 18.9941 48.5555C19.518 49.3703 21.0895 51 25.5711 51C30.0528 51 31.6243 49.3703 32.1481 48.5555C36.106 46.6347 40.2384 43.5499 42.1592 41.5128C44.0799 39.4757 45.0111 34.9358 45.3604 32.6077C47.3393 32.6077 49.0854 30.8616 49.6092 28.1842C50.0748 25.8561 48.969 23.5861 47.0483 22.9459ZM8.34289 21.0252C8.63391 20.3267 9.50696 20.1521 9.79798 19.5701C10.089 18.988 8.28469 15.1466 10.1472 13.6915C10.9621 12.9931 12.0679 12.7603 13.2902 12.7603C14.1632 12.8767 15.0363 13.1677 16.084 13.9243C17.4808 14.9138 20.5656 16.1361 20.7402 14.9138C20.7402 14.7974 20.7402 14.7392 20.7402 14.6228C22.8938 15.3794 25.1055 16.0779 27.3755 16.0779C30.1692 16.0779 30.0528 14.9138 29.6454 14.5646L29.5872 14.5064C29.9364 14.6228 30.9259 14.8556 33.0212 14.681C35.7568 14.5064 33.9525 13.4005 34.5927 13.1677C36.3388 12.4692 39.3072 13.1095 39.4818 13.1677C39.831 13.2841 40.122 13.5169 40.413 13.6915C42.2756 15.2048 40.4713 19.0462 40.7623 19.5701C41.0533 20.1521 41.9263 20.2685 42.2174 21.0252C42.4502 21.6654 42.4502 22.5385 42.392 23.2951L38.2595 24.401C37.2119 22.7713 35.4657 21.7236 33.545 21.7236C31.6243 21.7236 29.8782 22.7713 28.8305 24.401C27.6083 23.8189 26.2114 23.5279 24.8145 23.5279C23.3012 23.5279 21.8461 23.8771 20.6238 24.4592C19.5762 22.8295 17.8301 21.7236 15.8512 21.7236C13.8722 21.7236 12.1261 22.7713 11.1367 24.401L8.11008 23.5279C8.11008 22.7131 8.05187 21.7236 8.34289 21.0252ZM37.6193 27.835C37.6193 30.2795 35.815 32.2585 33.6032 32.2585C31.3915 32.2585 29.5872 30.2795 29.5872 27.835C29.5872 25.3904 31.3915 23.4115 33.6032 23.4115C35.815 23.4115 37.6193 25.3904 37.6193 27.835ZM19.9254 27.835C19.9254 30.2795 18.1211 32.2585 15.9094 32.2585C13.6976 32.2585 11.8933 30.2795 11.8933 27.835C11.8933 25.3904 13.6976 23.4115 15.9094 23.4115C18.1211 23.4115 19.9254 25.3904 19.9254 27.835ZM47.7467 27.835C47.4557 29.3483 46.5244 30.9198 45.1857 30.7452C44.5455 30.687 44.1381 30.2795 43.9053 29.9303L42.3338 30.978C42.683 31.4436 43.0904 31.851 43.4978 32.142C43.1486 34.5284 42.2756 38.6608 40.7623 40.2905C38.8998 42.2695 34.7091 45.3543 31.0423 47.0422L30.6931 47.2168L30.5766 47.6242C30.5766 47.6242 29.7618 49.2539 25.5711 49.2539C21.3805 49.2539 20.5656 47.6242 20.5656 47.6242L20.4492 47.2168L20.1 47.0422C16.4332 45.3543 12.2425 42.2695 10.38 40.2905C8.80852 38.6608 7.93547 34.2374 7.58624 31.9092C7.87726 31.6764 8.16828 31.3272 8.40109 30.978L6.8296 29.9303C6.59678 30.2795 6.18936 30.687 5.54912 30.7452C4.21044 30.8616 3.27918 29.3483 2.98816 27.835C2.69715 26.3217 3.45379 25.0412 4.32685 24.7502C5.1999 24.4592 6.13116 25.1576 6.8296 26.6709L8.5175 25.8561C8.4011 25.6815 8.34289 25.5068 8.22648 25.3322L10.4964 26.0307C10.3218 26.6127 10.2054 27.253 10.2054 27.8932C10.2054 31.269 12.7664 34.0046 15.9094 34.0046C19.0523 34.0046 21.6133 31.269 21.6133 27.8932C21.6133 27.253 21.4969 26.6709 21.3805 26.0889C22.4282 25.565 23.6504 25.274 24.8727 25.274C26.0368 25.274 27.1426 25.5068 28.1321 25.9725C27.9575 26.5545 27.8411 27.1947 27.8411 27.8932C27.8411 28.3588 27.8993 28.8244 28.0157 29.2901C27.2008 28.6498 26.2114 28.2424 25.1637 28.2424C22.661 28.2424 20.6238 30.2795 20.6238 32.7823C20.6238 35.285 22.661 37.3222 25.1637 37.3222C26.7352 37.3222 28.1903 36.5073 29.0052 35.1686L27.5501 34.2374C27.0262 35.0522 26.1532 35.5761 25.1637 35.5761C23.5922 35.5761 22.3699 34.2956 22.3699 32.7823C22.3699 31.2108 23.6504 29.9885 25.1637 29.9885C25.9786 29.9885 26.7934 30.3377 27.3172 30.978L28.3067 30.1631C29.1798 32.4331 31.2169 34.0046 33.6032 34.0046C36.7462 34.0046 39.3072 31.269 39.3072 27.8932C39.3072 27.253 39.1908 26.6127 39.0162 26.0307L42.6248 25.0412C42.4502 25.274 42.3338 25.565 42.1592 25.8561L43.8471 26.6709C44.5455 25.1576 45.4768 24.4592 46.3498 24.7502C47.3393 24.983 48.0959 26.3217 47.7467 27.835Z" fill="black" stroke="#58C475" stroke-width="0.185019"></path><path d="M47.0483 22.9459C46.7572 22.8295 46.4662 22.8295 46.1752 22.7713C46.408 21.8982 47.6303 17.3583 47.1647 12.6439C46.8154 8.97703 44.9529 9.73368 43.9635 8.395C42.3338 6.06686 40.8205 4.20434 35.0583 2.69105C31.2169 1.70159 28.5395 0.944942 25.4547 1.00315C22.3117 0.944942 19.5762 1.70159 15.7347 2.69105C9.97259 4.20434 8.4593 6.00865 6.8296 8.395C5.89834 9.79188 3.91942 9.09344 3.5702 12.7603C3.10457 17.4748 4.21044 21.9564 4.44325 22.7713C4.15224 22.7713 3.91942 22.8295 3.68661 22.8877C1.76589 23.5279 0.601819 25.8561 1.12565 28.1842C1.64948 30.8616 3.39559 32.6077 5.37451 32.6077C5.49092 32.6077 5.60733 32.6077 5.72373 32.6077C5.72373 32.6077 5.72373 32.6077 5.78193 32.6077C6.13116 34.9358 7.06241 39.5339 8.98313 41.5128C10.9038 43.5499 15.0363 46.6929 18.9941 48.5555C19.518 49.3703 21.0895 51 25.5711 51C30.0528 51 31.6243 49.3703 32.1481 48.5555C36.106 46.6347 40.2384 43.5499 42.1592 41.5128C44.0799 39.4757 45.0111 34.9358 45.3604 32.6077C47.3393 32.6077 49.0854 30.8616 49.6092 28.1842C50.0748 25.8561 48.969 23.5861 47.0483 22.9459ZM8.34289 21.0252C8.63391 20.3267 9.50696 20.1521 9.79798 19.5701C10.089 18.988 8.28469 15.1466 10.1472 13.6915C10.9621 12.9931 12.0679 12.7603 13.2902 12.7603C14.1632 12.8767 15.0363 13.1677 16.084 13.9243C17.4808 14.9138 20.5656 16.1361 20.7402 14.9138C20.7402 14.7974 20.7402 14.7392 20.7402 14.6228C22.8938 15.3794 25.1055 16.0779 27.3755 16.0779C30.1692 16.0779 30.0528 14.9138 29.6454 14.5646L29.5872 14.5064C29.9364 14.6228 30.9259 14.8556 33.0212 14.681C35.7568 14.5064 33.9525 13.4005 34.5927 13.1677C36.3388 12.4692 39.3072 13.1095 39.4818 13.1677C39.831 13.2841 40.122 13.5169 40.413 13.6915C42.2756 15.2048 40.4713 19.0462 40.7623 19.5701C41.0533 20.1521 41.9263 20.2685 42.2174 21.0252C42.4502 21.6654 42.4502 22.5385 42.392 23.2951L38.2595 24.401C37.2119 22.7713 35.4657 21.7236 33.545 21.7236C31.6243 21.7236 29.8782 22.7713 28.8305 24.401C27.6083 23.8189 26.2114 23.5279 24.8145 23.5279C23.3012 23.5279 21.8461 23.8771 20.6238 24.4592C19.5762 22.8295 17.8301 21.7236 15.8512 21.7236C13.8722 21.7236 12.1261 22.7713 11.1367 24.401L8.11008 23.5279C8.11008 22.7131 8.05187 21.7236 8.34289 21.0252ZM37.6193 27.835C37.6193 30.2795 35.815 32.2585 33.6032 32.2585C31.3915 32.2585 29.5872 30.2795 29.5872 27.835C29.5872 25.3904 31.3915 23.4115 33.6032 23.4115C35.815 23.4115 37.6193 25.3904 37.6193 27.835ZM19.9254 27.835C19.9254 30.2795 18.1211 32.2585 15.9094 32.2585C13.6976 32.2585 11.8933 30.2795 11.8933 27.835C11.8933 25.3904 13.6976 23.4115 15.9094 23.4115C18.1211 23.4115 19.9254 25.3904 19.9254 27.835ZM47.7467 27.835C47.4557 29.3483 46.5244 30.9198 45.1857 30.7452C44.5455 30.687 44.1381 30.2795 43.9053 29.9303L42.3338 30.978C42.683 31.4436 43.0904 31.851 43.4978 32.142C43.1486 34.5284 42.2756 38.6608 40.7623 40.2905C38.8998 42.2695 34.7091 45.3543 31.0423 47.0422L30.6931 47.2168L30.5766 47.6242C30.5766 47.6242 29.7618 49.2539 25.5711 49.2539C21.3805 49.2539 20.5656 47.6242 20.5656 47.6242L20.4492 47.2168L20.1 47.0422C16.4332 45.3543 12.2425 42.2695 10.38 40.2905C8.80852 38.6608 7.93547 34.2374 7.58624 31.9092C7.87726 31.6764 8.16828 31.3272 8.40109 30.978L6.8296 29.9303C6.59678 30.2795 6.18936 30.687 5.54912 30.7452C4.21044 30.8616 3.27918 29.3483 2.98816 27.835C2.69715 26.3217 3.45379 25.0412 4.32685 24.7502C5.1999 24.4592 6.13116 25.1576 6.8296 26.6709L8.5175 25.8561C8.4011 25.6815 8.34289 25.5068 8.22648 25.3322L10.4964 26.0307C10.3218 26.6127 10.2054 27.253 10.2054 27.8932C10.2054 31.269 12.7664 34.0046 15.9094 34.0046C19.0523 34.0046 21.6133 31.269 21.6133 27.8932C21.6133 27.253 21.4969 26.6709 21.3805 26.0889C22.4282 25.565 23.6504 25.274 24.8727 25.274C26.0368 25.274 27.1426 25.5068 28.1321 25.9725C27.9575 26.5545 27.8411 27.1947 27.8411 27.8932C27.8411 28.3588 27.8993 28.8244 28.0157 29.2901C27.2008 28.6498 26.2114 28.2424 25.1637 28.2424C22.661 28.2424 20.6238 30.2795 20.6238 32.7823C20.6238 35.285 22.661 37.3222 25.1637 37.3222C26.7352 37.3222 28.1903 36.5073 29.0052 35.1686L27.5501 34.2374C27.0262 35.0522 26.1532 35.5761 25.1637 35.5761C23.5922 35.5761 22.3699 34.2956 22.3699 32.7823C22.3699 31.2108 23.6504 29.9885 25.1637 29.9885C25.9786 29.9885 26.7934 30.3377 27.3172 30.978L28.3067 30.1631C29.1798 32.4331 31.2169 34.0046 33.6032 34.0046C36.7462 34.0046 39.3072 31.269 39.3072 27.8932C39.3072 27.253 39.1908 26.6127 39.0162 26.0307L42.6248 25.0412C42.4502 25.274 42.3338 25.565 42.1592 25.8561L43.8471 26.6709C44.5455 25.1576 45.4768 24.4592 46.3498 24.7502C47.3393 24.983 48.0959 26.3217 47.7467 27.835Z" fill="black" stroke="#58C475" stroke-width="0.185019"></path><path d="M46.4661 24.6917C45.593 24.4007 44.6617 25.0991 43.9633 26.6124L42.2754 25.7976C42.3918 25.5066 42.5664 25.2155 42.741 24.9827L39.1324 25.9722C39.307 26.5542 39.4234 27.1945 39.4234 27.8347C39.4234 31.2105 36.8625 33.9461 33.7195 33.9461C31.3331 33.9461 29.2378 32.3746 28.423 30.1046L27.4335 30.9195C26.9097 30.2793 26.0948 29.93 25.28 29.93C23.7085 29.93 22.4862 31.2105 22.4862 32.7238C22.4862 34.2953 23.7667 35.5176 25.28 35.5176C26.2694 35.5176 27.1425 34.9937 27.6663 34.1789L29.1214 35.1101C28.3065 36.4488 26.8515 37.2637 25.28 37.2637C22.7772 37.2637 20.7401 35.2266 20.7401 32.7238C20.7401 30.221 22.7772 28.1839 25.28 28.1839C26.3276 28.1839 27.3171 28.5331 28.1319 29.2316C28.0155 28.766 27.9573 28.3003 27.9573 27.8347C27.9573 27.1945 28.0737 26.5542 28.2483 25.914C27.2589 25.4484 26.153 25.2155 24.9889 25.2155C23.7085 25.2155 22.5444 25.5066 21.4967 26.0304C21.6713 26.6124 21.7295 27.1945 21.7295 27.8347C21.7295 31.2105 19.1686 33.9461 16.0256 33.9461C12.8826 33.9461 10.3216 31.2105 10.3216 27.8347C10.3216 27.1945 10.4381 26.5542 10.6127 25.9722L8.34272 25.2738C8.45913 25.4484 8.51733 25.623 8.63374 25.7976L6.94584 26.6124C6.2474 25.0991 5.31614 24.4007 4.44309 24.6917C3.57003 24.9827 2.81339 26.3214 3.1044 27.7765C3.39542 29.2898 4.32668 30.8613 5.66536 30.6867C6.3056 30.6285 6.71302 30.221 6.94584 29.8718L8.51733 30.9195C8.28452 31.2687 7.9935 31.6179 7.70248 31.8507C8.05171 34.1789 8.92476 38.6024 10.4963 40.2321C12.3588 42.211 16.4912 45.2958 20.2163 46.9837L20.5655 47.1583L20.6819 47.5657C20.6819 47.5657 21.4385 49.1954 25.6874 49.1954C29.878 49.1954 30.6929 47.6239 30.6929 47.5657L30.8093 47.1583L31.1585 46.9837C34.8253 45.2958 39.016 42.211 40.8785 40.2321C42.3918 38.6606 43.2649 34.4699 43.6141 32.0836C43.1485 31.7925 42.741 31.3851 42.45 30.9195L44.0215 29.8718C44.2543 30.221 44.6617 30.6285 45.302 30.6867C46.6407 30.8031 47.5719 29.2898 47.8629 27.7765C48.0958 26.3214 47.3391 24.9827 46.4661 24.6917ZM6.13099 28.7078L3.74464 26.6706C4.26847 26.0886 6.48021 25.5648 6.13099 28.7078ZM22.8354 43.4915H28.0155C28.0155 44.4809 25.862 46.7509 22.8354 43.4915ZM26.0366 41.7454H25.1636H24.1741C18.9358 41.7454 16.6658 40.1157 16.6076 39.9992L17.1315 39.359L17.6553 38.6606C17.6553 38.6606 19.6342 40.0574 24.2323 40.0574H25.28C29.5288 40.0574 31.5077 40.0574 34.5925 37.6711L35.6402 39.068C32.2062 41.5707 29.878 41.7454 26.0366 41.7454Z" fill="#58C475"></path><path d="M33.602 23.4111C31.3902 23.4111 29.5859 25.3901 29.5859 27.8346C29.5859 30.2792 31.3902 32.2581 33.602 32.2581C35.8137 32.2581 37.618 30.2792 37.618 27.8346C37.618 25.3901 35.8137 23.4111 33.602 23.4111ZM33.7184 29.5225C32.7871 29.5225 31.9723 28.7659 31.9723 27.7764C31.9723 26.8451 32.7289 26.0303 33.7184 26.0303C34.6496 26.0303 35.4645 26.7869 35.4645 27.7764C35.4645 28.7659 34.6496 29.5225 33.7184 29.5225Z" fill="white"></path><path d="M15.9086 23.4111C13.6969 23.4111 11.8926 25.3901 11.8926 27.8346C11.8926 30.2792 13.6969 32.2581 15.9086 32.2581C18.1204 32.2581 19.9247 30.2792 19.9247 27.8346C19.9247 25.3901 18.1204 23.4111 15.9086 23.4111ZM16.025 29.5225C15.0938 29.5225 14.2789 28.7659 14.2789 27.7764C14.2789 26.8451 15.0356 26.0303 16.025 26.0303C16.9563 26.0303 17.7711 26.7869 17.7711 27.7764C17.7711 28.7659 16.9563 29.5225 16.025 29.5225Z" fill="white"></path><path d="M42.2743 21.0252C41.9833 20.3267 41.1685 20.1521 40.8192 19.5701C40.5282 18.988 42.2743 15.1466 40.47 13.6915C40.179 13.4587 39.888 13.2841 39.5388 13.1677C39.3642 13.1095 36.3958 12.4692 34.6497 13.1677C34.0094 13.4587 35.7555 14.5646 33.0782 14.681C30.9828 14.7974 29.9934 14.6228 29.6442 14.5064L29.7024 14.5646C30.0516 14.9138 30.168 16.0779 27.4324 16.0779C25.1625 16.0779 22.9508 15.3794 20.7972 14.6228C20.7972 14.7392 20.7972 14.8556 20.7972 14.9138C20.5644 16.1361 17.5378 14.9138 16.1409 13.9243C15.0933 13.1677 14.2784 12.8767 13.3472 12.7603C12.1249 12.7603 11.019 13.0513 10.2042 13.6915C8.34166 15.2048 10.146 19.0462 9.85496 19.5701C9.56394 20.1521 8.69089 20.2685 8.39987 21.0252C8.10885 21.7236 8.16705 22.7131 8.22526 23.4697L11.2518 24.3428C12.2995 22.7131 14.0456 21.6654 15.9663 21.6654C17.9452 21.6654 19.6914 22.7713 20.739 24.401C22.0195 23.7607 23.4746 23.4697 24.9297 23.4697C26.3266 23.4697 27.7234 23.7607 28.9457 24.3428C29.9934 22.7713 31.6813 21.6654 33.6602 21.6654C35.6391 21.6654 37.3852 22.7131 38.3747 24.3428L42.5071 23.2369C42.5071 22.5385 42.5071 21.6654 42.2743 21.0252ZM18.9347 20.6177C18.0035 20.2103 16.9558 20.0357 15.9081 20.1521C14.8605 20.2685 13.871 20.6177 13.0562 21.1416L12.1249 19.6865C13.1726 18.988 14.453 18.5224 15.7917 18.406C17.1304 18.2896 18.4691 18.4642 19.6914 18.988L18.9347 20.6177ZM35.9301 21.1416C35.1153 20.6177 34.1258 20.2685 33.0782 20.1521C32.0305 20.0357 30.9828 20.2103 30.0516 20.6177L29.3531 19.0462C30.5172 18.5224 31.8559 18.3478 33.2528 18.4642C34.5915 18.5806 35.8719 19.0462 36.9196 19.7447L35.9301 21.1416Z" fill="#58C475"></path><path fill-rule="evenodd" clip-rule="evenodd" d="M41.1593 24.8562C43.1055 24.1908 44.9242 23.412 46.5887 22.5352C46.7414 22.5574 46.8942 22.5864 47.047 22.6475C48.9677 23.2877 50.0736 25.5577 49.6079 27.8858C49.0841 30.5632 47.338 32.3093 45.3591 32.3093C45.0099 34.6374 44.0786 39.1773 42.1579 41.2144C40.2372 43.2516 36.1047 46.3364 32.1469 48.2571C31.623 49.0719 30.0515 50.7016 25.5699 50.7016C21.0882 50.7016 19.5167 49.0719 18.9929 48.2571C15.035 46.3946 10.9026 43.2516 8.98186 41.2144C7.06114 39.2355 6.12988 34.6374 5.78066 32.3093H5.72246H5.37323C3.39431 32.3093 1.64821 30.5632 1.12437 27.8858C0.625827 25.6701 2.12227 23.9325 3.92368 23.218C5.24767 23.8426 6.6563 24.4084 8.13797 24.9086C8.19041 24.9924 8.25145 25.1015 8.31249 25.2105L8.31251 25.2105L8.31252 25.2105C8.38527 25.3405 8.45803 25.4704 8.51623 25.5577L6.82832 26.3725C6.12988 24.8592 5.19862 24.1608 4.32557 24.4518C3.45252 24.7428 2.69587 26.0233 2.98689 27.5366C3.27791 29.0499 4.20916 30.5632 5.54784 30.4468C6.18808 30.3886 6.59551 29.9812 6.82832 29.6319L8.39982 30.6796C8.16701 31.0288 7.87599 31.378 7.58497 31.6108C7.93419 33.939 8.80725 38.3625 10.3787 39.9922C12.2413 41.9711 16.4319 45.0559 20.0987 46.7438L20.448 46.9184L20.5644 47.3258C20.5644 47.3258 21.3792 48.9555 25.5699 48.9555C29.7605 48.9555 30.5754 47.3258 30.5754 47.3258L30.6918 46.9184L31.041 46.7438C34.7078 45.0559 38.8985 41.9711 40.761 39.9922C42.2743 38.3625 43.1474 34.23 43.4966 31.8437C43.0891 31.5526 42.6817 31.1452 42.3325 30.6796L43.904 29.6319C44.1368 29.9812 44.5442 30.3886 45.1845 30.4468C46.5232 30.6214 47.4544 29.0499 47.7454 27.5366C48.0947 26.0233 47.338 24.6846 46.3485 24.4518C45.4755 24.1608 44.5442 24.8592 43.8458 26.3725L42.1579 25.5577C42.2272 25.4422 42.2873 25.3268 42.3455 25.215C42.434 25.0449 42.5182 24.8833 42.6235 24.7428L41.1593 25.1443V24.8562Z" fill="black"></path><path d="M47.3298 26.4678L44.9434 28.5049C44.5942 25.3619 46.806 25.8857 47.3298 26.4678Z" fill="black"></path><path d="M62.0961 35.0167C63.388 36.124 65.0489 36.6776 67.079 36.6776C68.9245 36.6776 70.4009 36.3085 71.5082 35.3858C72.6155 34.6476 73.1692 33.5403 73.1692 32.0638C73.1692 30.9565 72.8001 30.2183 72.2464 29.4801C71.6928 28.9265 70.77 28.3728 69.8472 28.1883C68.9245 27.8192 67.4481 27.6346 65.7871 27.2655C63.0189 26.8964 60.9888 25.9737 59.3278 25.0509C57.6669 24.1282 56.9287 22.2826 56.9287 19.8835C56.9287 18.4071 57.2978 17.1152 58.036 15.8233C58.7742 14.716 59.8815 13.7933 61.3579 13.0551C62.8343 12.5014 64.3107 12.1323 66.1562 12.1323C68.0017 12.1323 69.6627 12.5014 71.1391 13.2396C72.6155 13.9778 73.7228 14.9006 74.6456 16.1924C75.5683 17.4843 75.9375 18.7762 76.122 20.4371H72.8001C72.6155 18.9607 71.8773 17.6689 70.77 16.7461C69.4781 15.8233 68.0017 15.2697 66.3408 15.2697C64.4953 15.2697 63.2034 15.6388 62.0961 16.377C60.9888 17.1152 60.4351 18.2225 60.4351 19.6989C60.4351 20.8062 60.8043 21.5444 61.3579 22.0981C61.9116 22.6517 62.8343 23.0208 63.757 23.3899C64.6798 23.759 65.9717 23.9436 67.8172 24.3127C70.5855 24.6818 72.6155 25.6046 74.2765 26.5273C75.9375 27.4501 76.6756 29.2956 76.6756 31.6948C76.6756 33.1712 76.3065 34.6476 75.3838 35.7549C74.6456 37.0467 73.5383 37.9695 72.0619 38.5231C70.5854 39.2613 68.9245 39.4459 67.079 39.4459C65.0489 39.4459 63.2034 39.0768 61.5424 38.3386C60.066 37.6004 58.7742 36.4931 57.8514 35.2012C56.9287 33.9094 56.5596 32.2484 56.375 30.5874H59.6969C60.066 32.433 60.8042 33.9094 62.0961 35.0167Z" fill="black"></path><path d="M83.8726 14.347C83.8726 14.9006 83.6881 15.4543 83.319 15.8234C82.9499 16.1925 82.3962 16.377 81.8425 16.377C81.2889 16.377 80.7352 16.1925 80.3661 15.8234C79.997 15.4543 79.8125 14.9006 79.8125 14.347C79.8125 13.7933 79.997 13.2396 80.3661 12.8705C80.7352 12.5014 81.2889 12.3169 81.8425 12.3169C82.3962 12.3169 82.9499 12.5014 83.319 12.8705C83.6881 13.2396 83.8726 13.7933 83.8726 14.347ZM83.5035 19.8835V39.4459H80.3661V19.8835H83.5035Z" fill="black"></path><path d="M91.6235 35.7546C92.5463 36.4928 93.8381 36.8619 95.4991 36.8619C96.791 36.8619 98.0828 36.6773 98.821 36.1237C99.7437 35.57 100.113 34.8318 100.113 33.9091C100.113 33.1709 99.9283 32.6172 99.5592 32.0636C99.1901 31.6945 98.6364 31.3254 97.8982 31.1408C97.16 30.9563 96.2373 30.7717 95.13 30.7717C93.469 30.5872 91.9926 30.2181 91.0699 30.0335C89.9626 29.6644 89.0398 29.1108 88.4862 28.3726C87.748 27.6344 87.5634 26.7116 87.5634 25.4198C87.5634 24.3125 87.9325 23.2052 88.4862 22.2824C89.2244 21.3597 89.9626 20.6215 91.0699 20.2524C92.1772 19.6987 93.469 19.5142 94.9454 19.5142C97.16 19.5142 99.1901 20.0678 100.482 21.1751C101.958 22.2824 102.697 23.7588 102.881 25.7889H99.7437C99.5592 24.6816 99.1901 23.9434 98.2674 23.2052C97.3446 22.467 96.2373 22.2824 94.9454 22.2824C93.6536 22.2824 92.5463 22.467 91.8081 23.0206C91.0699 23.5743 90.5162 24.3125 90.5162 25.2352C90.5162 25.9734 90.7008 26.3425 91.0699 26.7116C91.439 27.0807 91.9926 27.2653 92.5463 27.4498C93.0999 27.6344 94.0227 27.6344 95.3145 27.8189C96.9755 28.0035 98.4519 28.3726 99.5592 28.7417C100.667 29.1108 101.589 29.6644 102.327 30.4026C103.066 31.1408 103.25 32.2481 103.25 33.54C103.25 34.6473 102.881 35.7546 102.143 36.6773C101.405 37.6001 100.482 38.3383 99.3746 38.7074C98.2673 39.2611 96.9755 39.4456 95.4991 39.4456C92.9154 39.4456 90.8853 38.8919 89.4089 37.6001C87.9325 36.4928 87.0098 34.8318 87.0098 32.6172H90.1471C90.1471 34.0936 90.7008 35.0164 91.6235 35.7546Z" fill="black"></path><path d="M104.543 22.652V19.6991H108.049V14.1626H111.187V19.6991H116.17V22.652H111.187V34.2787C111.187 35.0169 111.371 35.7551 111.74 35.9396C112.11 36.3087 112.663 36.4933 113.401 36.4933H116.723V39.4461H113.032C111.187 39.4461 109.895 39.077 109.157 38.1543C108.419 37.4161 108.049 36.1242 108.049 34.2787V22.652H104.543Z" fill="black"></path><path d="M122.076 20.806C123.552 20.0678 125.029 19.5142 126.874 19.5142C128.72 19.5142 130.196 19.8833 131.672 20.6215C132.964 21.3597 134.071 22.467 134.994 23.7588C135.732 25.2352 136.286 26.8962 136.286 28.7417C136.286 29.1108 136.286 29.4799 136.286 30.0335H121.153V30.2181C121.153 32.0636 121.707 33.7245 122.998 34.8318C124.29 35.9391 125.582 36.4928 127.428 36.4928C128.904 36.4928 130.011 36.1237 130.934 35.3855C131.857 34.6473 132.595 33.7245 132.964 32.4327H136.102C135.732 34.4627 134.81 36.1237 133.149 37.231C131.672 38.5229 129.827 39.0765 127.428 39.0765C125.398 39.0765 123.737 38.7074 122.26 37.7847C120.784 36.8619 119.677 35.7546 118.938 34.2782C118.2 32.8018 117.646 30.9563 117.646 29.1108C117.646 27.0807 118.016 25.4198 118.754 23.9434C119.677 22.8361 120.784 21.7288 122.076 20.806ZM131.119 23.7588C130.011 22.8361 128.719 22.467 127.059 22.467C125.582 22.467 124.29 23.0206 123.183 23.9434C122.076 24.8661 121.337 26.158 121.337 27.8189H133.149C132.78 25.9734 132.226 24.6816 131.119 23.7588Z" fill="black"></path><path d="M168.95 28.004V39.2616H165.813V28.1886C165.813 26.3431 165.444 24.8667 164.521 23.9439C163.783 23.0211 162.491 22.4675 161.014 22.4675C159.353 22.4675 158.062 23.0211 157.139 24.1285C156.216 25.2358 155.662 26.8967 155.662 28.9268V39.4462H152.525V28.3731C152.525 26.5276 152.156 25.0512 151.233 24.1285C150.495 23.2057 149.203 22.652 147.727 22.652C146.066 22.652 144.958 23.2057 144.036 24.4975C143.113 25.7894 142.559 27.2658 142.559 29.2959V39.6308H139.422V19.8838H142.19L142.559 22.652C144.036 20.622 145.881 19.6992 148.28 19.6992C149.757 19.6992 150.864 20.0683 151.971 20.622C153.079 21.1756 153.817 22.0984 154.371 23.3902C155.847 20.9911 158.062 19.6992 161.199 19.6992C163.414 19.6992 165.259 20.4374 166.551 21.7293C168.212 23.0211 168.95 25.2358 168.95 28.004Z" fill="black"></path><path d="M191.098 39.4461H189.437C188.145 39.4461 187.222 39.2616 186.668 38.7079C186.115 38.1543 185.93 37.4161 185.746 36.4933C184.269 38.7079 182.055 39.8152 179.102 39.8152C176.887 39.8152 175.226 39.2616 173.934 38.3388C172.643 37.2315 171.904 35.9397 171.904 34.0942C171.904 32.0641 172.643 30.5877 173.934 29.4804C175.226 28.3731 177.256 27.8194 179.84 27.8194H185.561V26.5276C185.561 25.2357 185.192 24.313 184.269 23.5748C183.346 22.8366 182.239 22.4675 180.763 22.4675C179.471 22.4675 178.364 22.8366 177.441 23.3902C176.518 23.9439 175.964 24.8666 175.78 25.7894H172.642C172.827 23.9439 173.75 22.4675 175.226 21.3602C176.703 20.2529 178.548 19.6992 180.947 19.6992C183.531 19.6992 185.376 20.2529 186.668 21.5447C187.96 22.8366 188.698 24.4975 188.698 26.7121V35.2015C188.698 36.1242 189.067 36.6779 189.99 36.6779H190.913V39.4461H191.098ZM179.655 30.4031C176.703 30.4031 175.226 31.5104 175.226 33.725C175.226 34.6478 175.595 35.386 176.333 36.1242C177.072 36.6779 178.179 37.047 179.471 37.047C181.316 37.047 182.977 36.4933 184.085 35.5706C185.192 34.6478 185.746 33.1714 185.746 31.5104V30.5877H179.655V30.4031Z" fill="black"></path><path d="M203.969 14.6169C205.946 13.4875 208.317 12.9229 210.972 12.9229C213.061 12.9229 214.981 13.3181 216.618 14.1652C218.312 14.9557 219.611 16.1416 220.684 17.6098C221.701 19.078 222.322 20.772 222.548 22.6355H216.901C216.562 21.1673 215.828 19.9815 214.755 19.078C213.682 18.1745 212.383 17.7792 210.746 17.7792C209.277 17.7792 207.979 18.1745 206.906 18.9086C205.833 19.6427 204.986 20.6591 204.421 21.9579C203.856 23.2567 203.574 24.7813 203.574 26.4754C203.574 29.073 204.195 31.1623 205.494 32.7999C206.793 34.381 208.543 35.1716 210.802 35.1716C212.44 35.1716 213.908 34.7198 215.15 33.8163C216.393 32.9128 217.183 31.6141 217.409 29.8635V29.5247H210.802V25.0072H222.717V39.7456H218.764L218.143 36.4139C217.353 37.4304 216.28 38.2774 214.981 38.955C213.682 39.6326 212.157 39.915 210.407 39.915C207.922 39.915 205.663 39.3503 203.8 38.2209C201.88 37.0915 200.412 35.5104 199.339 33.4775C198.266 31.4447 197.758 29.073 197.758 26.3625C197.758 23.6519 198.266 21.2802 199.339 19.2474C200.412 17.3274 201.937 15.7463 203.969 14.6169Z" fill="black"></path><path d="M233.052 15.1252C233.052 15.9722 232.769 16.7063 232.205 17.271C231.64 17.8357 230.906 18.118 230.002 18.118C229.099 18.118 228.365 17.8357 227.8 17.271C227.179 16.7063 226.896 15.9722 226.896 15.1252C226.896 14.2781 227.179 13.544 227.8 12.9794C228.421 12.4147 229.155 12.1323 230.002 12.1323C230.906 12.1323 231.64 12.4147 232.205 12.9794C232.713 13.544 233.052 14.2217 233.052 15.1252ZM232.6 20.2074V39.7456H227.235V20.2074H232.6Z" fill="black"></path><path d="M237.117 13.1489H242.821V34.833H253.38V39.7458H237.117V13.1489Z" fill="black"></path></svg>